<svg aria-hidden="true" style="position: absolute; width: 0; height: 0; overflow: hidden;" version="1.1" xmlns="http://www.w3.org/2000/svg" xmlns:xlink="http://www.w3.org/1999/xlink">
<defs>
<symbol id="icon-Pages" viewBox="0 0 94 32">
<path fill="#f5f8fc" style="fill: var(--color1, #f5f8fc)" d="M0.023 24v-23.273h9.182c1.765 0 3.269 0.337 4.511 1.011 1.242 0.667 2.189 1.595 2.841 2.784 0.659 1.182 0.989 2.546 0.989 4.091s-0.333 2.909-1 4.091c-0.667 1.182-1.633 2.102-2.898 2.761-1.258 0.659-2.78 0.989-4.568 0.989h-5.852v-3.943h5.057c0.947 0 1.727-0.163 2.341-0.489 0.621-0.333 1.083-0.792 1.386-1.375 0.311-0.591 0.466-1.269 0.466-2.034 0-0.773-0.155-1.447-0.466-2.023-0.303-0.583-0.765-1.034-1.386-1.352-0.621-0.326-1.409-0.489-2.364-0.489h-3.318v19.25h-4.92zM25.159 24.33c-1.114 0-2.106-0.193-2.977-0.58-0.871-0.394-1.561-0.973-2.068-1.739-0.5-0.773-0.75-1.735-0.75-2.886 0-0.97 0.178-1.784 0.534-2.443s0.841-1.189 1.454-1.591c0.614-0.402 1.311-0.704 2.091-0.909 0.788-0.205 1.614-0.348 2.477-0.432 1.015-0.106 1.833-0.204 2.454-0.295 0.621-0.098 1.072-0.242 1.352-0.432s0.42-0.47 0.42-0.841v-0.068c0-0.72-0.227-1.276-0.682-1.67-0.447-0.394-1.083-0.591-1.909-0.591-0.871 0-1.564 0.193-2.080 0.58-0.515 0.379-0.856 0.856-1.023 1.432l-4.477-0.364c0.227-1.061 0.674-1.977 1.341-2.75 0.667-0.78 1.526-1.379 2.58-1.795 1.061-0.424 2.288-0.636 3.682-0.636 0.97 0 1.898 0.114 2.784 0.341 0.894 0.227 1.686 0.58 2.375 1.057 0.697 0.477 1.246 1.091 1.648 1.841 0.401 0.742 0.602 1.633 0.602 2.671v11.773h-4.591v-2.42h-0.136c-0.28 0.546-0.655 1.026-1.125 1.443-0.47 0.409-1.034 0.731-1.693 0.966-0.659 0.227-1.42 0.341-2.284 0.341zM26.546 20.989c0.712 0 1.341-0.14 1.886-0.42 0.546-0.288 0.974-0.674 1.284-1.159s0.466-1.034 0.466-1.648v-1.852c-0.152 0.098-0.36 0.189-0.625 0.273-0.258 0.076-0.549 0.148-0.875 0.216-0.326 0.061-0.652 0.117-0.977 0.171-0.326 0.045-0.621 0.087-0.886 0.125-0.568 0.083-1.064 0.216-1.489 0.398s-0.754 0.428-0.989 0.739c-0.235 0.303-0.352 0.682-0.352 1.136 0 0.659 0.239 1.163 0.716 1.511 0.485 0.341 1.099 0.511 1.841 0.511zM46.608 30.909c-1.568 0-2.913-0.216-4.034-0.648-1.114-0.424-2-1.004-2.659-1.739s-1.087-1.561-1.284-2.477l4.477-0.602c0.136 0.348 0.352 0.674 0.648 0.977s0.686 0.546 1.17 0.727c0.492 0.189 1.091 0.284 1.795 0.284 1.053 0 1.92-0.258 2.602-0.773 0.689-0.508 1.034-1.36 1.034-2.557v-3.193h-0.205c-0.212 0.485-0.53 0.943-0.955 1.375s-0.97 0.784-1.636 1.057-1.462 0.409-2.386 0.409c-1.311 0-2.504-0.303-3.58-0.909-1.068-0.614-1.92-1.549-2.557-2.807-0.629-1.265-0.943-2.864-0.943-4.795 0-1.977 0.322-3.629 0.966-4.955s1.5-2.318 2.568-2.977c1.076-0.659 2.254-0.989 3.534-0.989 0.977 0 1.795 0.167 2.455 0.5 0.659 0.326 1.189 0.735 1.591 1.227 0.409 0.485 0.724 0.962 0.943 1.432h0.182v-2.932h4.807v17.625c0 1.485-0.364 2.727-1.091 3.727s-1.735 1.75-3.023 2.25c-1.28 0.508-2.754 0.761-4.42 0.761zM46.71 20.114c0.78 0 1.439-0.193 1.977-0.58 0.545-0.394 0.962-0.954 1.25-1.682 0.295-0.735 0.443-1.614 0.443-2.636s-0.144-1.909-0.432-2.659c-0.288-0.758-0.705-1.345-1.25-1.761s-1.208-0.625-1.989-0.625c-0.795 0-1.466 0.216-2.011 0.648-0.545 0.424-0.958 1.015-1.239 1.773s-0.42 1.633-0.42 2.625c0 1.008 0.14 1.879 0.42 2.614 0.288 0.727 0.701 1.292 1.239 1.693 0.545 0.394 1.216 0.591 2.011 0.591zM66.949 24.341c-1.796 0-3.341-0.364-4.636-1.091-1.288-0.735-2.28-1.773-2.977-3.114-0.697-1.348-1.045-2.943-1.045-4.784 0-1.795 0.348-3.371 1.045-4.727s1.678-2.413 2.943-3.171c1.273-0.758 2.765-1.136 4.477-1.136 1.152 0 2.224 0.186 3.216 0.557 1 0.364 1.871 0.913 2.614 1.648 0.75 0.735 1.333 1.659 1.75 2.773 0.417 1.106 0.625 2.402 0.625 3.886v1.33h-14.738v-3h10.182c0-0.697-0.152-1.314-0.454-1.852s-0.724-0.958-1.261-1.261c-0.53-0.311-1.148-0.466-1.852-0.466-0.735 0-1.386 0.171-1.954 0.511-0.561 0.333-1 0.784-1.318 1.352-0.318 0.561-0.481 1.186-0.489 1.875v2.852c0 0.864 0.159 1.61 0.477 2.239 0.326 0.629 0.784 1.114 1.375 1.454s1.292 0.511 2.102 0.511c0.538 0 1.030-0.076 1.477-0.227s0.829-0.379 1.148-0.682c0.318-0.303 0.561-0.674 0.727-1.114l4.478 0.295c-0.227 1.076-0.694 2.015-1.398 2.818-0.697 0.795-1.599 1.417-2.705 1.864-1.099 0.439-2.367 0.659-3.807 0.659zM92.642 11.523l-4.432 0.273c-0.075-0.379-0.239-0.72-0.489-1.023-0.249-0.31-0.579-0.557-0.989-0.739-0.401-0.189-0.882-0.284-1.442-0.284-0.751 0-1.383 0.159-1.898 0.477-0.515 0.31-0.773 0.727-0.773 1.25 0 0.417 0.167 0.769 0.499 1.057 0.334 0.288 0.906 0.519 1.717 0.693l3.159 0.636c1.697 0.348 2.962 0.909 3.795 1.682s1.25 1.788 1.25 3.045c0 1.144-0.337 2.148-1.011 3.011-0.666 0.864-1.584 1.538-2.75 2.023-1.16 0.477-2.497 0.716-4.011 0.716-2.311 0-4.152-0.481-5.523-1.443-1.363-0.97-2.162-2.288-2.398-3.954l4.761-0.25c0.144 0.705 0.493 1.242 1.046 1.614 0.553 0.364 1.262 0.545 2.126 0.545 0.848 0 1.53-0.163 2.045-0.489 0.523-0.333 0.789-0.761 0.795-1.284-0.007-0.439-0.193-0.799-0.557-1.080-0.363-0.288-0.925-0.508-1.681-0.659l-3.023-0.602c-1.705-0.341-2.974-0.932-3.807-1.773-0.826-0.841-1.239-1.913-1.239-3.216 0-1.121 0.303-2.087 0.909-2.898 0.614-0.81 1.474-1.436 2.579-1.875 1.114-0.439 2.417-0.659 3.91-0.659 2.205 0 3.939 0.466 5.205 1.398 1.273 0.932 2.015 2.201 2.227 3.807z"></path>
</symbol>
<symbol id="icon-search" viewBox="0 0 32 32">
<path d="M31.008 27.231l-7.58-6.447c-0.784-0.705-1.622-1.029-2.299-0.998 1.789-2.096 2.87-4.815 2.87-7.787 0-6.627-5.373-12-12-12s-12 5.373-12 12 5.373 12 12 12c2.972 0 5.691-1.081 7.787-2.87-0.031 0.677 0.293 1.515 0.998 2.299l6.447 7.58c1.104 1.226 2.907 1.33 4.007 0.23s0.997-2.903-0.23-4.007zM12 20c-4.418 0-8-3.582-8-8s3.582-8 8-8 8 3.582 8 8-3.582 8-8 8z"></path>
</symbol>
</defs>
</svg>
